<svg width="0" height="0" class="hidden">
  <symbol xmlns="http://www.w3.org/2000/svg" viewBox="0 0 16 16" id="askfm-721992">
    <path d="M13.532 7.103l-.407-.135c-.996-.325-1.596-.522-1.596-1.327 0-.653.485-1.126 1.153-1.126.512 0 .894.221 1.236.719a.11.11 0 00.142.036l1.005-.533a.11.11 0 00.056-.07.13.13 0 00-.009-.091c-.539-.994-1.315-1.477-2.374-1.477-1.611 0-2.653 1.013-2.653 2.58 0 1.602 1.008 2.251 2.866 2.886 1.076.373 1.553.57 1.553 1.366 0 .895-.777 1.538-1.837 1.5-1.111-.039-1.447-.65-1.87-1.652a475.93 475.93 0 01-1.538-3.696C8.442 4.123 6.821 3 4.812 3 2.159 3 0 5.243 0 8.001 0 10.757 2.159 13 4.812 13c1.447 0 2.804-.666 3.722-1.829a.12.12 0 00.016-.12l-.606-1.454a.115.115 0 00-.099-.07.11.11 0 00-.103.062c-.573 1.137-1.696 1.843-2.93 1.843C2.991 11.432 1.51 9.893 1.51 8s1.481-3.432 3.302-3.432c1.326 0 2.54.817 3.023 2.037l1.501 3.555.173.399c.678 1.641 1.675 2.377 3.236 2.383 1.856 0 3.255-1.278 3.255-2.972 0-1.699-.905-2.337-2.468-2.867z" fill="#FF5722"></path>
  </symbol>
  <symbol xmlns="http://www.w3.org/2000/svg" viewBox="0 0 16 16" id="behance-721993">
    <path d="M7.341 4.04c.302.415.453.91.453 1.489 0 .595-.151 1.075-.457 1.437-.172.201-.423.387-.755.554.504.182.884.469 1.143.861.256.392.385.869.385 1.429 0 .578-.147 1.097-.441 1.555-.186.303-.42.56-.7.767a2.747 2.747 0 01-1.117.49c-.43.088-.895.131-1.397.131H0V3h4.778c1.206.018 2.059.364 2.563 1.04zm-5.37.654v2.152h2.404c.428 0 .777-.081 1.046-.242.267-.161.402-.447.402-.856 0-.456-.177-.755-.531-.902-.306-.101-.696-.152-1.169-.152H1.971zm0 3.766v2.601h2.401c.429 0 .764-.057 1.002-.172.434-.214.65-.618.65-1.218 0-.509-.209-.857-.629-1.047-.236-.105-.566-.161-.99-.164H1.971zm12.116-2.772c.511.225.931.581 1.262 1.067.302.429.496.926.584 1.491.052.33.072.809.064 1.432H10.67c.032.723.284 1.231.766 1.521.292.181.642.272 1.055.272.434 0 .788-.11 1.06-.33.15-.12.281-.285.394-.496h1.952c-.052.427-.289.862-.708 1.304-.655.7-1.572 1.051-2.751 1.051-.974 0-1.832-.295-2.575-.887-.746-.591-1.117-1.554-1.117-2.887 0-1.25.336-2.209 1.007-2.876.673-.665 1.543-1 2.614-1 .638-.001 1.211.112 1.72.338zm-2.859 1.629c-.27.275-.44.647-.51 1.116h3.295c-.035-.501-.206-.88-.509-1.141-.307-.259-.684-.388-1.135-.388-.489.001-.871.139-1.141.413zm-1.004-2.648h4.237V3.455h-4.237v1.214z" fill="#1976D2"></path>
  </symbol>
  <symbol xmlns="http://www.w3.org/2000/svg" viewBox="0 0 16 16" id="blogger-721994">
    <path d="M15.592 6.19c-.338-.144-1.787.016-2.189-.347-.284-.262-.302-.736-.413-1.368-.186-1.059-.263-1.299-.456-1.716C11.831 1.273 10.147 0 8.617 0H5.07C2.28 0 0 2.277 0 5.057v5.896C0 13.728 2.28 16 5.07 16h5.827c2.79 0 5.055-2.272 5.071-5.047L16 6.87s0-.505-.408-.68zM5.134 4.133h2.812c.536 0 .971.433.971.962 0 .53-.435.967-.971.967H5.134a.972.972 0 01-.971-.967c0-.53.435-.962.971-.962zm5.715 7.708H5.134a.971.971 0 01-.971-.962c0-.529.435-.962.971-.962h5.715c.531 0 .966.433.966.962a.97.97 0 01-.966.962z" fill="#FF7043"></path>
  </symbol>
  <symbol xmlns="http://www.w3.org/2000/svg" viewBox="0 0 16 16" id="delicious-721995">
    <path fill="#FAFAFA" d="M1 1h7v7H1z"></path>
    <path fill="#1565C0" d="M8 1h7v7H8z"></path>
    <path fill="#37474F" d="M1 8h7v7H1z"></path>
    <path fill="#CFD8DC" d="M8 8h7v7H8z"></path>
  </symbol>
  <symbol xmlns="http://www.w3.org/2000/svg" viewBox="0 0 16 16" id="deviantart-721941">
    <path d="M13 0h-3L8.526 2.737a.5.5 0 01-.44.263H3v4h2.394a.5.5 0 01.44.737L3 13v3h3l1.474-2.737a.5.5 0 01.44-.263H13V9h-2.394a.5.5 0 01-.44-.737L13 3V0z" fill="#4CAF50"></path>
  </symbol>
  <symbol xmlns="http://www.w3.org/2000/svg" viewBox="0 0 16 16" id="digg-721944">
    <path d="M4.75 6h1.5v5h-1.5zM7 11h2.5v1.5H7V14h4V6H7v5zm1.5-3.5h1v2h-1v-2zM12 6v5h2.5v1.5H12V14h4V6h-4zm2.5 3.5h-1v-2h1v2zM2.5 6H0v5h4V3H2.5v3zm0 3.5h-1v-2h1v2zM4.75 4h1.5v1h-1.5z" fill="#37474F"></path>
  </symbol>
  <symbol xmlns="http://www.w3.org/2000/svg" viewBox="0 0 16 16" id="dislike-721945">
    <path d="M0 8.5v-7A.5.5 0 01.5 1H5v8H.5a.5.5 0 01-.5-.5z" fill="#1565C0"></path>
    <path d="M14 10h-4v3c0 1.103-.897 2-2 2H6.5a.5.5 0 01-.5-.5v-2.367L4.066 8.748A.493.493 0 014 8.5v-7a.5.5 0 01.5-.5h8.025a2 2 0 011.827 1.188l1.604 3.609A.491.491 0 0116 6v2c0 1.103-.897 2-2 2z" fill="#BBDEFB"></path>
  </symbol>
  <symbol xmlns="http://www.w3.org/2000/svg" viewBox="0 0 16 16" id="dribbble-721947">
    <circle cx="8" cy="7.946" r="7.5" fill="#EC407A"></circle>
    <path d="M8 0C3.589 0 0 3.589 0 8s3.589 8 8 8 8-3.589 8-8-3.589-8-8-8zm6.997 8.06a11.121 11.121 0 00-5.086-.158 28.054 28.054 0 00-.732-1.667 15.09 15.09 0 004.095-2.822A6.96 6.96 0 0115 8c0 .02-.003.039-.003.06zm-2.43-5.353a14.07 14.07 0 01-3.822 2.639 28.107 28.107 0 00-2.61-4.086A6.96 6.96 0 018 1a6.96 6.96 0 014.567 1.707zm-7.42-1.093a27.08 27.08 0 012.665 4.109 14.08 14.08 0 01-6.663.843 7.02 7.02 0 013.998-4.952zM1 8c0-.15.013-.297.023-.444.592.07 1.184.116 1.774.116 1.882 0 3.731-.368 5.464-1.043.24.5.466 1.007.675 1.521a11.209 11.209 0 00-6.122 4.535A6.966 6.966 0 011 8zm2.545 5.395A10.205 10.205 0 019.296 9.08a27.04 27.04 0 011.352 5.396 6.967 6.967 0 01-7.103-1.081zm8.041.605a28.095 28.095 0 00-1.308-5.152 10.132 10.132 0 014.632.218A7.004 7.004 0 0111.586 14z" fill="#C2185B"></path>
  </symbol>
  <symbol xmlns="http://www.w3.org/2000/svg" viewBox="0 0 16 16" id="dropbox-721946">
    <g fill="#1E88E5">
      <path d="M16 3.098L11.293 0 8 2.771l4.746 2.953zM4.707 0L0 3.097l3.255 2.627L8 2.771zM8 8.678l-3.293 2.771L0 8.351l3.254-2.627L8 8.678l4.745-2.954L16 8.351l-4.707 3.098L8 8.678z"></path>
      <path d="M11.531 12.489a.496.496 0 01-.596-.035L8 9.984l-2.935 2.47a.502.502 0 01-.597.035L3 11.523V13l5.01 3L13 13v-1.478l-1.469.967z"></path>
    </g>
  </symbol>
  <symbol xmlns="http://www.w3.org/2000/svg" viewBox="0 0 16 16" id="envato-721948">
    <path d="M12.869.088c-.572-.281-3.474.04-5.566 2.047-3.296 3.291-3.217 7.627-3.217 7.627s-.109.446-.573-.201c-1.016-1.295-.484-4.274-.424-4.689.084-.585-.289-.602-.444-.409-3.672 5.098-.356 9.272 1.815 10.597 2.542 1.551 7.556 1.55 9.553-2.85C16.501 6.731 13.586.439 12.869.088z" fill="#7CB342"></path>
  </symbol>
  <symbol xmlns="http://www.w3.org/2000/svg" viewBox="0 0 16 16" id="facebook-721949">
    <path d="M14 0H2C.897 0 0 .897 0 2v12c0 1.103.897 2 2 2h12c1.103 0 2-.897 2-2V2c0-1.103-.897-2-2-2z" fill="#1976D2"></path>
    <path d="M13.5 8H11V6c0-.552.448-.5 1-.5h1V3h-2a3 3 0 00-3 3v2H6v2.5h2V16h3v-5.5h1.5l1-2.5z" fill-rule="evenodd" clip-rule="evenodd" fill="#FAFAFA"></path>
  </symbol>
  <symbol xmlns="http://www.w3.org/2000/svg" viewBox="0 0 16 16" id="facebook-721950">
    <path d="M12 5.5H9v-2a1 1 0 011-1h1V0H9a3 3 0 00-3 3v2.5H4V8h2v8h3V8h2l1-2.5z" fill-rule="evenodd" clip-rule="evenodd" fill="#1976D2"></path>
  </symbol>
  <symbol xmlns="http://www.w3.org/2000/svg" viewBox="0 0 16 16" id="flickr-721956">
    <circle cx="12.5" cy="7.5" r="3.5" fill="#EC407A"></circle>
    <circle cx="3.5" cy="7.5" r="3.5" fill="#3F51B5"></circle>
  </symbol>
  <symbol xmlns="http://www.w3.org/2000/svg" viewBox="0 0 16 16" id="forrst-721952">
    <path fill="#009688" d="M1 16L7.5 0 14 16z"></path>
    <path d="M10.876 11.285a.497.497 0 00-.671-.222l-1.705.858v-.501a.5.5 0 00.277-.084l.96-.64a.5.5 0 00-.554-.832l-.683.455V9h-2v2.511l-.925-.933a.5.5 0 00-.71.703l1.29 1.301a.5.5 0 00.345.147V16h2v-3.02a.49.49 0 00.224-.054l1.93-.971a.498.498 0 00.222-.67z" fill="#FAFAFA"></path>
  </symbol>
  <symbol xmlns="http://www.w3.org/2000/svg" viewBox="0 0 16 16" id="foursquare-721955">
    <path d="M12.941 0H4.505C3.346 0 3 .887 3 1.445v13.556c0 .668.336.865.52.942a.91.91 0 00.331.057.954.954 0 00.687-.276l4.072-4.796c.065-.077.097-.077.141-.077h2.534c1.083 0 1.289-.756 1.408-1.215.097-.383 1.213-5.858 1.559-7.588C14.511.712 14.175 0 12.941 0z" fill="#EC407A"></path>
    <path d="M10.9 8.461a.49.49 0 01-.488.39H8.75a2.13 2.13 0 00-1.666.783L5 12.089V2.5a.5.5 0 01.5-.5h6.11c.316 0 .554.284.491.594l-.305 1.504a.503.503 0 01-.49.402H8.5A.5.5 0 008 5v1a.5.5 0 00.5.5h2.192c.317 0 .553.294.489.604L10.9 8.461z" fill="#FAFAFA"></path>
  </symbol>
  <symbol xmlns="http://www.w3.org/2000/svg" viewBox="0 0 16 16" id="github-721954">
    <path d="M7.999 0C3.582 0 0 3.596 0 8.032a8.031 8.031 0 005.472 7.621c.4.074.546-.174.546-.387 0-.191-.007-.696-.011-1.366-2.225.485-2.695-1.077-2.695-1.077-.363-.928-.888-1.175-.888-1.175-.727-.498.054-.488.054-.488.803.057 1.225.828 1.225.828.714 1.227 1.873.873 2.329.667.072-.519.279-.873.508-1.074-1.776-.203-3.644-.892-3.644-3.969 0-.877.312-1.594.824-2.156-.083-.203-.357-1.02.078-2.125 0 0 .672-.216 2.2.823a7.633 7.633 0 012.003-.27 7.65 7.65 0 012.003.271c1.527-1.039 2.198-.823 2.198-.823.436 1.106.162 1.922.08 2.125.513.562.822 1.279.822 2.156 0 3.085-1.87 3.764-3.652 3.963.287.248.543.738.543 1.487 0 1.074-.01 1.94-.01 2.203 0 .215.144.465.55.386A8.032 8.032 0 0016 8.032C16 3.596 12.418 0 7.999 0z" fill="#5C6BC0"></path>
  </symbol>
  <symbol xmlns="http://www.w3.org/2000/svg" viewBox="0 0 16 16" id="google-drive-721942">
    <path fill="#FFC107" d="M10.667 11H16L10.667 1H5.333z"></path>
    <path fill="#2196F3" d="M4.952 11l-2.285 4H13.5l2.5-4z"></path>
    <path fill="#4CAF50" d="M5.333 1L0 10.333 2.667 15l5.241-9.172z"></path>
  </symbol>
  <symbol xmlns="http://www.w3.org/2000/svg" viewBox="0 0 16 16" id="google-hangouts-721953">
    <path d="M8 0C4.14 0 1 3.14 1 7c0 3.481 2.6 6.439 6 6.93V16h.5c3.995 0 7.5-4.206 7.5-9 0-3.86-3.141-7-7-7z" fill="#4CAF50"></path>
    <path d="M4 5v3h1.5v1.5C7 9.083 7 8.109 7 8.109V5H4zm5 0v3h1.5v1.5C12 9.083 12 8.109 12 8.109V5H9z" fill="#FAFAFA"></path>
  </symbol>
  <symbol xmlns="http://www.w3.org/2000/svg" viewBox="0 0 16 16" id="google-photos-721957">
    <path fill="#FFC107" d="M4 4L0 8h6l1.5-.5z"></path>
    <path fill="#FFA000" d="M4 4l3.5 3.5L8 6V4z"></path>
    <path fill="#4CAF50" d="M4 12l4 4v-6l-.5-1.5z"></path>
    <path fill="#388E3C" d="M4 12l3.5-3.5L6 8H4z"></path>
    <path fill="#2196F3" d="M12 12l4-4h-6l-1.5.5z"></path>
    <path fill="#1976D2" d="M12 12L8.5 8.5 8 10v2z"></path>
    <path fill="#F44336" d="M12 4L8 0v6l.5 1.5z"></path>
    <path fill="#9C27B0" d="M12 4L8.5 7.5 10 8h2z"></path>
  </symbol>
  <symbol xmlns="http://www.w3.org/2000/svg" viewBox="0 0 16 16" id="google-plus-721943">
    <path d="M16 7h-2V5h-1v2h-2v1h2v2h1V8h2zM5 9h2.829A3.006 3.006 0 015 11c-1.654 0-3-1.346-3-3s1.346-3 3-3c.717 0 1.407.257 1.943.724l1.314-1.508A4.955 4.955 0 005 3C2.243 3 0 5.243 0 8s2.243 5 5 5 5-2.243 5-5V7H5v2z" fill="#F44336"></path>
  </symbol>
  <symbol xmlns="http://www.w3.org/2000/svg" viewBox="0 0 16 16" id="instagram-721958">
    <linearGradient id="a" gradientUnits="userSpaceOnUse" x1="1.464" y1="14.536" x2="14.536" y2="1.464">
      <stop offset="0" stop-color="#FFC107"></stop>
      <stop offset=".507" stop-color="#F44336"></stop>
      <stop offset=".99" stop-color="#9C27B0"></stop>
    </linearGradient>
    <path d="M11 0H5a5 5 0 00-5 5v6a5 5 0 005 5h6a5 5 0 005-5V5a5 5 0 00-5-5zm3.5 11c0 1.93-1.57 3.5-3.5 3.5H5c-1.93 0-3.5-1.57-3.5-3.5V5c0-1.93 1.57-3.5 3.5-3.5h6c1.93 0 3.5 1.57 3.5 3.5v6z" fill="url(#a)"></path>
    <linearGradient id="b" gradientUnits="userSpaceOnUse" x1="5.172" y1="10.828" x2="10.828" y2="5.172">
      <stop offset="0" stop-color="#FFC107"></stop>
      <stop offset=".507" stop-color="#F44336"></stop>
      <stop offset=".99" stop-color="#9C27B0"></stop>
    </linearGradient>
    <path d="M8 4a4 4 0 100 8 4 4 0 000-8zm0 6.5A2.503 2.503 0 015.5 8c0-1.379 1.122-2.5 2.5-2.5s2.5 1.121 2.5 2.5c0 1.378-1.122 2.5-2.5 2.5z" fill="url(#b)"></path>
    <linearGradient id="c" gradientUnits="userSpaceOnUse" x1="11.923" y1="4.077" x2="12.677" y2="3.323">
      <stop offset="0" stop-color="#FFC107"></stop>
      <stop offset=".507" stop-color="#F44336"></stop>
      <stop offset=".99" stop-color="#9C27B0"></stop>
    </linearGradient>
    <circle cx="12.3" cy="3.7" r=".533" fill="url(#c)"></circle>
  </symbol>
  <symbol xmlns="http://www.w3.org/2000/svg" viewBox="0 0 16 16" id="kickstarter-721960">
    <path d="M10.379 8l3.471-3.819A2.5 2.5 0 0010.151.817L6 5.384V2.5a2.5 2.5 0 10-5 0v11a2.5 2.5 0 105 0v-2.883l4.15 4.565a2.494 2.494 0 001.851.818 2.5 2.5 0 001.849-4.181L10.379 8z" fill="#4CAF50"></path>
  </symbol>
  <symbol xmlns="http://www.w3.org/2000/svg" viewBox="0 0 16 16" id="laughing-smiley-721988">
    <circle cx="8" cy="8" r="8" fill="#FFC107"></circle>
    <circle cx="5.5" cy="4.5" r="1" fill="#673AB7"></circle>
    <circle cx="10.5" cy="4.5" r="1" fill="#673AB7"></circle>
    <path d="M2 7v1c0 3.309 2.691 6 6 6s6-2.691 6-6V7H2z" fill="#D32F2F"></path>
    <path d="M2 7v1c0 .341.035.674.09 1h11.82c.055-.326.09-.659.09-1V7H2z" fill="#FAFAFA"></path>
  </symbol>
  <symbol xmlns="http://www.w3.org/2000/svg" viewBox="0 0 16 16" id="like-721959">
    <path d="M0 7.5v7a.5.5 0 00.5.5H5V7H.5a.5.5 0 00-.5.5z" fill="#1565C0"></path>
    <path d="M14 6h-4V3c0-1.103-.897-2-2-2H6.5a.5.5 0 00-.5.5v2.367L4.066 7.252A.493.493 0 004 7.5v7a.5.5 0 00.5.5h8.025a2 2 0 001.827-1.188l1.604-3.609A.491.491 0 0016 10V8c0-1.103-.897-2-2-2z" fill="#BBDEFB"></path>
  </symbol>
  <symbol xmlns="http://www.w3.org/2000/svg" viewBox="0 0 16 16" id="linkedin-721962">
    <g fill="#1976D2">
      <path d="M0 5h3.578v11H0zm13.324.129c-.038-.012-.074-.025-.114-.036a2.32 2.32 0 00-.145-.028A3.207 3.207 0 0012.423 5c-2.086 0-3.409 1.517-3.845 2.103V5H5v11h3.578v-6s2.704-3.766 3.845-1v7H16V8.577a3.568 3.568 0 00-2.676-3.448z"></path>
      <circle cx="1.75" cy="1.75" r="1.75"></circle>
    </g>
  </symbol>
  <symbol xmlns="http://www.w3.org/2000/svg" viewBox="0 0 16 16" id="messenger-721951">
    <path d="M8 0C3.582 0 0 3.316 0 7.407c0 2.331 1.163 4.41 2.981 5.768V16l2.724-1.495c.727.201 1.497.31 2.295.31 4.418 0 8-3.316 8-7.407C16 3.316 12.418 0 8 0z" fill="#1E88E5"></path>
    <path fill="#FAFAFA" d="M8.795 9.975L6.758 7.802 2.783 9.975l4.372-4.642 2.087 2.173 3.926-2.173z"></path>
  </symbol>
  <symbol xmlns="http://www.w3.org/2000/svg" viewBox="0 0 16 16" id="myspace-721961">
    <g fill="#37474F">
      <path d="M13 9c-1.654 0-3 1.346-3 3v.5a.5.5 0 00.5.5h5a.5.5 0 00.5-.5V12c0-1.654-1.346-3-3-3z"></path>
      <circle cx="13" cy="5.5" r="2.5"></circle>
      <path d="M7 9a2.503 2.503 0 00-2.5 2.5v1a.5.5 0 00.5.5h4a.5.5 0 00.5-.5v-1C9.5 10.121 8.378 9 7 9zM2 9c-1.103 0-2 .897-2 2v1.5a.5.5 0 00.5.5h3a.5.5 0 00.5-.5V11c0-1.103-.897-2-2-2z"></path>
      <circle cx="7" cy="6" r="2.25"></circle>
      <circle cx="2" cy="6.5" r="1.75"></circle>
    </g>
  </symbol>
  <symbol xmlns="http://www.w3.org/2000/svg" viewBox="0 0 16 16" id="myspace-721963">
    <g fill="#37474F">
      <path d="M12.5 7c-.98 0-1.864.407-2.5 1.058V8c0-1.654-1.346-3-3-3-.973 0-1.83.473-2.379 1.193A2.493 2.493 0 002.5 5 2.503 2.503 0 000 7.5V11h4v2h5v3h7v-5.5C16 8.57 14.43 7 12.5 7z"></path>
      <circle cx="12.5" cy="3" r="3"></circle>
      <circle cx="7" cy="2.5" r="2"></circle>
      <circle cx="2.5" cy="3" r="1.5"></circle>
    </g>
  </symbol>
  <symbol xmlns="http://www.w3.org/2000/svg" viewBox="0 0 16 16" id="path-721964">
    <path d="M15.996 5.749C15.909 3.53 13.868-.042 7.947 0 1.764.044-.043 4.185.001 6.552.044 8.92 1.59 10.23 1.59 10.23l2.308-1.902s-.98.084-.98-1.86c0-2.962 3.549-3.72 5.813-3.678 2.264.042 4.051 1.87 4.082 3.297.03 1.395-.34 2.28-1.47 2.916-1.35.761-2.986.085-2.986.085l.022-4.776-3.052.018-.008 8.436s-.028.675-.816.634c-.565-.029-1.279-.65-1.279-.65l.005 2.51s.881.74 2.275.74c3.005 0 2.874-2.938 2.874-2.938v-1.655s.613.296 1.832.296c5.052 0 5.859-4.093 5.786-5.954z" fill="#C62828"></path>
  </symbol>
  <symbol xmlns="http://www.w3.org/2000/svg" viewBox="0 0 16 16" id="picasa-721965">
    <path d="M12 1.079V11h3.413A7.96 7.96 0 0016 8a7.99 7.99 0 00-4-6.921z" fill="#FFC107"></path>
    <path d="M11 .587A7.96 7.96 0 008 0c-.964 0-1.884.179-2.74.492L11 5.849V.587z" fill="#F44336"></path>
    <path d="M5 15.413A7.96 7.96 0 008 16a7.99 7.99 0 006.921-4H5v3.413z" fill="#4CAF50"></path>
    <path d="M4.262.929A7.997 7.997 0 000 8c0 .705.1 1.386.272 2.037l6.752-6.531L4.262.929z" fill="#9C27B0"></path>
    <path d="M4 14.921V7.823L.62 11.092A8.031 8.031 0 004 14.921z" fill="#2196F3"></path>
  </symbol>
  <symbol xmlns="http://www.w3.org/2000/svg" viewBox="0 0 16 16" id="pinterest-721968">
    <path d="M8.717 0C4.332 0 2 2.81 2 5.874c0 1.421.794 3.193 2.065 3.755.193.087.298.05.341-.129.038-.136.205-.791.286-1.1a.283.283 0 00-.068-.278c-.422-.488-.757-1.377-.757-2.211 0-2.137 1.699-4.212 4.59-4.212 2.5 0 4.249 1.624 4.249 3.947 0 2.625-1.389 4.441-3.194 4.441-.999 0-1.743-.784-1.507-1.754.285-1.155.844-2.397.844-3.23 0-.747-.422-1.365-1.284-1.365-1.017 0-1.842 1.007-1.842 2.359 0 .859.304 1.439.304 1.439l-1.193 4.823c-.316 1.285.043 3.366.074 3.545.019.099.13.13.192.049.099-.13 1.315-1.865 1.656-3.119.124-.457.633-2.31.633-2.31.335.605 1.302 1.112 2.332 1.112 3.064 0 5.278-2.693 5.278-6.035C14.988 2.397 12.246 0 8.717 0" fill="#D32F2F"></path>
  </symbol>
  <symbol xmlns="http://www.w3.org/2000/svg" viewBox="0 0 16 16" id="plurk-721966">
    <path d="M1 0v16h4v-4h10V0H1zm10 8H5V4h6v4z" fill="#FF5722"></path>
  </symbol>
  <symbol xmlns="http://www.w3.org/2000/svg" viewBox="0 0 16 16" id="reddit-721967">
    <path fill="#FAFAFA" d="M6 9.5l-.5-.001V9.5zm4.5 0h.5l-.5-.001z"></path>
    <path d="M16.07 8c0-1.103-.897-2-2-2-.441 0-.86.144-1.202.405-1.116-.775-2.578-1.237-4.133-1.354l.839-1.968 2.441.57C12.093 4.408 12.725 5 13.5 5c.827 0 1.5-.673 1.5-1.5S14.327 2 13.5 2c-.524 0-.985.271-1.253.68l-2.853-.667a.5.5 0 00-.575.291l-1.16 2.72c-1.679.058-3.279.531-4.487 1.355A2.002 2.002 0 000 8a1.98 1.98 0 001.011 1.731A2.978 2.978 0 001 10c0 2.757 3.14 5 7 5 3.859 0 7-2.243 7-5 0-.078-.003-.155-.008-.232A1.98 1.98 0 0016.07 8z" fill="#FF9800"></path>
    <circle cx="13.5" cy="3.5" r=".5" fill="#FAFAFA"></circle>
    <circle cx="5.5" cy="9.5" r="1" fill="#FAFAFA"></circle>
    <path d="M10.309 12.817a3.936 3.936 0 01-4.618 0 .5.5 0 11.586-.81 2.933 2.933 0 003.446 0 .5.5 0 11.586.81z" fill="#FAFAFA"></path>
    <circle cx="10.5" cy="9.5" r="1" fill="#FAFAFA"></circle>
  </symbol>
  <symbol xmlns="http://www.w3.org/2000/svg" viewBox="0 0 16 16" id="rss-721969">
    <g fill="#FFA000">
      <circle cx="3" cy="13" r="2"></circle>
      <path d="M1 5.667v2.667A6.674 6.674 0 017.667 15h2.666c0-5.146-4.187-9.333-9.333-9.333z"></path>
      <path d="M1 1v2.667C7.25 3.667 12.334 8.75 12.334 15H15C15 7.28 8.72 1 1 1z"></path>
    </g>
  </symbol>
  <symbol xmlns="http://www.w3.org/2000/svg" viewBox="0 0 16 16" id="skype-721970">
    <path d="M15.716 8.083c0-4.155-3.416-7.524-7.631-7.524-.444 0-.88.038-1.305.11A4.453 4.453 0 004.426 0C1.981 0 0 1.953 0 4.364a4.3 4.3 0 00.608 2.207 7.464 7.464 0 00-.155 1.512c0 4.156 3.417 7.525 7.631 7.525a7.85 7.85 0 001.398-.126 4.46 4.46 0 002.093.518C14.019 16 16 14.046 16 11.637c0-.696-.166-1.354-.46-1.938a7.43 7.43 0 00.176-1.616z" fill="#03A9F4"></path>
    <path d="M11.999 11.679c-.353.493-.874.883-1.551 1.159-.669.274-1.47.415-2.384.415-1.096 0-2.015-.19-2.733-.566a3.547 3.547 0 01-1.256-1.1c-.325-.46-.488-.917-.488-1.36 0-.274.107-.514.318-.709.209-.195.477-.292.797-.292.262 0 .488.077.672.23.175.148.326.366.447.645.135.306.282.564.437.765.151.197.366.361.641.49.277.128.65.195 1.108.195.631 0 1.149-.134 1.537-.395.381-.255.565-.563.565-.939 0-.296-.097-.53-.294-.713a2.104 2.104 0 00-.814-.444 16.188 16.188 0 00-1.4-.342c-.793-.167-1.466-.364-2-.59-.547-.23-.989-.548-1.311-.945-.328-.406-.494-.913-.494-1.509 0-.568.174-1.08.518-1.522.341-.439.839-.782 1.482-1.015.633-.231 1.386-.347 2.239-.347.681 0 1.28.078 1.781.232.503.154.927.362 1.26.619.336.26.586.535.742.823.158.29.239.579.239.858 0 .269-.105.514-.313.726-.21.214-.474.322-.784.322-.282 0-.504-.069-.657-.202-.143-.125-.292-.32-.456-.598a2.507 2.507 0 00-.685-.836c-.257-.193-.685-.289-1.275-.289-.546 0-.992.108-1.322.322-.318.205-.473.441-.473.721 0 .171.05.314.153.437.108.132.261.245.455.341.2.099.407.179.614.235.212.058.567.145 1.056.256.618.13 1.185.277 1.687.436.509.159.947.356 1.307.587.365.235.654.535.86.895.206.363.31.808.31 1.326a2.833 2.833 0 01-.535 1.678z" fill="#FAFAFA"></path>
  </symbol>
  <symbol xmlns="http://www.w3.org/2000/svg" viewBox="0 0 16 16" id="snapchat-721971">
    <path d="M15.686 11.201c-2.139-.352-3.103-2.543-3.142-2.636l-.009-.018c-.109-.222-.135-.405-.075-.544.117-.274.565-.416.861-.51.086-.027.167-.053.234-.079.292-.115.5-.24.638-.381.164-.169.196-.331.194-.436-.005-.256-.201-.484-.514-.595a.93.93 0 00-.348-.066.775.775 0 00-.324.066c-.25.117-.474.181-.667.19a.612.612 0 01-.221-.048l.019-.309.003-.046c.069-1.083.154-2.43-.204-3.23a4.345 4.345 0 00-.979-1.401A4.094 4.094 0 009.981.386 4.627 4.627 0 008.154 0h-.04l-.275.003c-.355 0-1.066.05-1.829.386a4.071 4.071 0 00-1.167.771 4.359 4.359 0 00-.975 1.398c-.358.799-.273 2.146-.205 3.228v.002l.022.355a.64.64 0 01-.262.049c-.202 0-.442-.064-.713-.191a.64.64 0 00-.271-.056.958.958 0 00-.479.134c-.186.109-.306.262-.339.433-.021.112-.02.335.228.561.137.124.337.239.596.341.068.027.149.052.234.079.296.094.745.236.862.51.059.139.033.322-.076.544l-.008.018a5.295 5.295 0 01-.806 1.246 4.523 4.523 0 01-.972.858 3.577 3.577 0 01-1.365.531.373.373 0 00-.313.39c.003.055.016.11.039.163v.001c.077.179.254.33.542.463.352.163.878.3 1.565.407.035.066.071.231.096.344.026.12.053.244.092.375.042.142.15.312.429.312.106 0 .227-.024.368-.051.206-.04.488-.095.839-.095.195 0 .397.017.6.051.392.065.73.303 1.121.579.572.404 1.22.861 2.21.861l.081-.003c.032.002.073.003.115.003.99 0 1.638-.457 2.21-.86l.001-.001c.391-.275.729-.513 1.121-.578.203-.034.405-.051.6-.051.336 0 .602.043.839.089.155.03.275.045.368.045h.018a.405.405 0 00.411-.307 5.3 5.3 0 00.092-.372c.023-.106.061-.276.095-.342.687-.108 1.213-.244 1.565-.407.287-.133.464-.284.541-.462a.475.475 0 00.04-.165.372.372 0 00-.313-.388z" fill="#FFEB3B"></path>
  </symbol>
  <symbol xmlns="http://www.w3.org/2000/svg" viewBox="0 0 16 16" id="soundcloud-721972">
    <path d="M13.5 7a2.49 2.49 0 00-.521.055A4.508 4.508 0 008.5 3a.5.5 0 00-.5.5v8a.5.5 0 00.5.5h5c1.379 0 2.5-1.121 2.5-2.5C16 8.122 14.879 7 13.5 7zm-7-3a.5.5 0 00-.5.5v7a.5.5 0 001 0v-7a.5.5 0 00-.5-.5zm-2 2a.5.5 0 00-.5.5v5a.5.5 0 001 0v-5a.5.5 0 00-.5-.5zm-2 0a.5.5 0 00-.5.5v5a.5.5 0 001 0v-5a.5.5 0 00-.5-.5zm-2 1.5A.5.5 0 000 8v3a.5.5 0 001 0V8a.5.5 0 00-.5-.5z" fill="#FF9800"></path>
  </symbol>
  <symbol xmlns="http://www.w3.org/2000/svg" viewBox="0 0 16 16" id="spotify-721973">
    <circle cx="8" cy="8" r="8" fill="#8BC34A"></circle>
    <path d="M11.261 11.761c-.1 0-.2-.029-.287-.091-1.875-1.318-4.994-1.391-7.1-.9a.5.5 0 01-.226-.975c2.315-.536 5.775-.438 7.9 1.057a.5.5 0 01-.287.909zm.978-1.956a.495.495 0 01-.292-.094C9.773 8.15 7.101 7.762 3.535 8.49a.5.5 0 11-.201-.98c3.857-.787 6.779-.347 9.197 1.388a.5.5 0 01-.292.907zm.979-2.609a.501.501 0 01-.281-.086c-2.757-1.871-6.948-1.88-9.661-.92a.5.5 0 11-.333-.944C5.894 4.203 10.467 4.225 13.5 6.282a.5.5 0 01-.282.914z" fill="#37474F"></path>
  </symbol>
  <symbol xmlns="http://www.w3.org/2000/svg" viewBox="0 0 16 16" id="stumbleupon-721974">
    <g fill="#FF9800">
      <path d="M8 4.5v1.899l1.5 1 1.5-1V4.5C11 2.57 9.43 1 7.5 1S4 2.57 4 4.5v6a.5.5 0 01-1 0V8H0v2.5C0 12.43 1.57 14 3.5 14S7 12.43 7 10.5v-6a.5.5 0 011 0z"></path>
      <path d="M12 8v2.5c0 .275-.225.5-.5.5s-.5-.225-.5-.5V7.601l-1.223.815a.498.498 0 01-.554 0L8 7.601V10.5c0 1.93 1.57 3.5 3.5 3.5s3.5-1.57 3.5-3.5V8h-3z"></path>
    </g>
  </symbol>
  <symbol xmlns="http://www.w3.org/2000/svg" viewBox="0 0 16 16" id="team-721975">
    <circle cx="8" cy="8" r="8" fill="#2196F3"></circle>
    <path fill="#FAFAFA" d="M2 8l4-3-.435 2h4.87L10 5l4 3-4 3 .435-2h-4.87L6 11z"></path>
  </symbol>
  <symbol xmlns="http://www.w3.org/2000/svg" viewBox="0 0 16 16" id="tumblr-721976">
    <path d="M8.998 6.995v3.664c0 .924-.01 1.464.086 1.728.096.259.338.531.613.691a2.3 2.3 0 001.204.314c.811 0 1.296-.104 2.1-.629v2.405a8.956 8.956 0 01-1.838.636A7.542 7.542 0 019.369 16c-.733 0-1.169-.09-1.723-.273a4.131 4.131 0 01-1.443-.794c-.405-.34-.67-.703-.825-1.089-.158-.383-.232-.944-.232-1.679V6.558H2.999V4.291c.632-.207 1.332-.498 1.784-.879a4.43 4.43 0 001.07-1.378c.275-.528.462-1.211.566-2.034h2.579v4.001h4.003v2.994H8.998z" fill="#37474F"></path>
  </symbol>
  <symbol xmlns="http://www.w3.org/2000/svg" viewBox="0 0 16 16" id="twitch-721977">
    <g fill="#673AB7">
      <path d="M1 0L0 3v11h4v2h2l2-2h3l4-4.26V0H1zm13 9l-2.8 3H7.654L5.5 13.567V12H2V1h12v8z"></path>
      <path d="M7 4h1v4H7zm3 0h1v4h-1z"></path>
    </g>
  </symbol>
  <symbol xmlns="http://www.w3.org/2000/svg" viewBox="0 0 16 16" id="twitter-721978">
    <path d="M12 12H8c-1.103 0-2-.897-2-2V9h6a2 2 0 000-4H6V2a2 2 0 00-4 0v8c0 3.309 2.691 6 6 6h4a2 2 0 000-4z" fill="#03A9F4"></path>
  </symbol>
  <symbol xmlns="http://www.w3.org/2000/svg" viewBox="0 0 16 16" id="twitter-721979">
    <path d="M16 3.539a6.839 6.839 0 01-1.89.518 3.262 3.262 0 001.443-1.813 6.555 6.555 0 01-2.08.794 3.28 3.28 0 00-5.674 2.243c0 .26.022.51.076.748a9.284 9.284 0 01-6.761-3.431 3.285 3.285 0 001.008 4.384A3.24 3.24 0 01.64 6.578v.036a3.295 3.295 0 002.628 3.223 3.274 3.274 0 01-.86.108 2.9 2.9 0 01-.621-.056 3.311 3.311 0 003.065 2.285 6.59 6.59 0 01-4.067 1.399c-.269 0-.527-.012-.785-.045A9.234 9.234 0 005.032 15c6.036 0 9.336-5 9.336-9.334 0-.145-.005-.285-.012-.424A6.544 6.544 0 0016 3.539z" fill="#03A9F4"></path>
  </symbol>
  <symbol xmlns="http://www.w3.org/2000/svg" viewBox="0 0 16 16" id="viddler-721980">
    <path d="M12.137 8.659C14.27 8.659 16 6.944 16 4.829 16 2.715 14.27 1 12.137 1c-1.941 0-3.545 1.418-3.819 3.265h-.125C7.918 2.418 6.313 1 4.372 1 2.239 1 .51 2.715.51 4.829c0 2.095 1.697 3.798 3.804 3.829v.001h.116v1.305L0 8.774v5.093l4.43-1.321V14h6.511L9.033 8.659h3.104zM4.372 5.91a1.085 1.085 0 01-1.091-1.082c0-.597.489-1.081 1.091-1.081s1.091.484 1.091 1.081c0 .599-.489 1.082-1.091 1.082m6.753-1.081c0-.597.487-1.081 1.089-1.081.604 0 1.093.484 1.093 1.081 0 .598-.489 1.083-1.093 1.083a1.086 1.086 0 01-1.089-1.083" fill="#2196F3"></path>
  </symbol>
  <symbol xmlns="http://www.w3.org/2000/svg" viewBox="0 0 16 16" id="vimeo-721981">
    <path d="M0 4.82l.646.851s1.34-1.057 1.786-.531c.452.531 2.163 6.907 2.729 8.086.494 1.033 1.865 2.396 3.363 1.424 1.512-.978 6.503-5.24 7.397-10.283.892-5.034-6.016-3.98-6.74.408 1.822-1.094 2.804.448 1.87 2.191-.936 1.75-1.795 2.891-2.24 2.891-.437 0-.783-1.174-1.295-3.212C6.991 4.534 6.991.728 4.795 1.16 2.719 1.57 0 4.82 0 4.82z" fill="#00BCD4"></path>
  </symbol>
  <symbol xmlns="http://www.w3.org/2000/svg" viewBox="0 0 16 16" id="vine-721982">
    <path d="M14.404 6.629c.358-.802.553-1.841.553-2.752 0-2.451-1.24-3.877-3.512-3.877-2.337 0-3.703 1.811-3.703 4.198 0 2.365 1.097 4.396 2.905 5.321-.76 1.533-1.728 2.884-2.737 3.902-1.83-2.232-3.485-5.208-4.165-11.017H1.043c1.248 9.675 4.967 12.755 5.95 13.347.556.337 1.036.321 1.544.032.798-.458 3.196-2.874 4.524-5.705a8.84 8.84 0 001.895-.219V7.954a5.168 5.168 0 01-1.16.137c-2.003 0-3.544-1.41-3.544-3.862 0-1.201.461-1.826 1.112-1.826.62 0 1.033.561 1.033 1.698 0 .647-.172 1.356-.299 1.775.001.001.618 1.086 2.306.753z" fill="#26A69A"></path>
  </symbol>
  <symbol xmlns="http://www.w3.org/2000/svg" viewBox="0 0 16 16" id="vk-721983">
    <path d="M7.828 12.026h.956s.289-.032.436-.191c.136-.146.131-.42.131-.42s-.019-1.283.577-1.472c.587-.186 1.341 1.24 2.14 1.789.604.415 1.063.324 1.063.324l2.137-.03s1.118-.069.588-.948c-.043-.072-.309-.65-1.589-1.838-1.34-1.244-1.16-1.042.454-3.193.983-1.31 1.376-2.11 1.253-2.452-.117-.326-.84-.24-.84-.24l-2.404.014s-.178-.024-.311.055c-.129.078-.212.258-.212.258s-.381 1.014-.889 1.876c-1.071 1.819-1.5 1.915-1.675 1.802-.407-.263-.305-1.058-.305-1.622 0-1.763.267-2.498-.521-2.688-.262-.063-.454-.105-1.123-.112-.858-.009-1.585.003-1.996.204-.274.134-.485.433-.356.45.159.021.519.097.71.357.247.335.238 1.089.238 1.089s.142 2.075-.331 2.333c-.325.177-.77-.184-1.725-1.835-.489-.845-.859-1.78-.859-1.78s-.071-.174-.198-.267c-.154-.113-.37-.149-.37-.149l-2.286.014s-.343.01-.469.159c-.112.133-.009.407-.009.407s1.79 4.187 3.816 6.298c1.859 1.935 3.969 1.808 3.969 1.808z" fill="#1E88E5"></path>
  </symbol>
  <symbol xmlns="http://www.w3.org/2000/svg" viewBox="0 0 16 16" id="wattpad-721984">
    <path d="M12 2v9h-2V2H6v9H5c-.551 0-1-.448-1-1V2H0v8c0 2.757 2.243 5 5 5h11V2h-4z" fill="#FF9800"></path>
  </symbol>
  <symbol xmlns="http://www.w3.org/2000/svg" viewBox="0 0 16 16" id="whatsapp-721985">
    <path d="M8.002 0h-.004C3.587 0 0 3.588 0 8a7.94 7.94 0 001.523 4.689l-.997 2.972 3.075-.983A7.93 7.93 0 008.002 16C12.413 16 16 12.411 16 8s-3.587-8-7.998-8z" fill="#4CAF50"></path>
    <path d="M12.657 11.297c-.193.545-.959.997-1.57 1.129-.418.089-.964.16-2.802-.602-2.351-.974-3.865-3.363-3.983-3.518-.113-.155-.95-1.265-.95-2.413s.583-1.707.818-1.947c.193-.197.512-.287.818-.287.099 0 .188.005.268.009.235.01.353.024.508.395.193.465.663 1.613.719 1.731.057.118.114.278.034.433-.075.16-.141.231-.259.367-.118.136-.23.24-.348.386-.108.127-.23.263-.094.498.136.23.606.997 1.298 1.613.893.795 1.617 1.049 1.876 1.157.193.08.423.061.564-.089.179-.193.4-.513.625-.828.16-.226.362-.254.574-.174.216.075 1.359.64 1.594.757.235.118.39.174.447.273.056.099.056.564-.137 1.11z" fill="#FAFAFA"></path>
  </symbol>
  <symbol xmlns="http://www.w3.org/2000/svg" viewBox="0 0 16 16" id="wordpress-721986">
    <path d="M8 0C3.589 0 0 3.589 0 8s3.589 8 8 8 8-3.589 8-8-3.589-8-8-8zm0 1a6.95 6.95 0 013.828 1.147c-.383.213-.738.661-.738 1.613 0 .506.345 1.093.744 1.773.479.816 1.073 1.831.924 2.564-.164.485-.58 1.586-1.031 2.761L9.66 4.918c.042-.011.089-.018.129-.031a.5.5 0 10-.317-.948c-.426.142-1.197.139-1.66.138h-.278c-.46.001-1.234.004-1.66-.138a.5.5 0 00-.315.948c.211.071.46.109.714.137l1.23 3.198-1.163 2.934L4.353 4.94c.073-.017.151-.03.218-.053a.499.499 0 10-.316-.948c-.425.142-1.198.138-1.661.138h-.137c-.09 0-.164-.007-.24-.013A6.994 6.994 0 018 1zM1 8c0-.786.136-1.54.376-2.246l3.068 8.265C2.387 12.798 1 10.561 1 8zm5.009 6.708L8.033 9.6l1.964 5.107A7.004 7.004 0 018 15a7.003 7.003 0 01-1.991-.292zm5.57-.704c.648-1.661 1.764-4.538 2.099-5.511l.013.004a.91.91 0 00.039-.153c.113-.314.209-.601.286-.843.247-.781.404-1.468.486-2.076C14.82 6.223 15 7.09 15 8a6.994 6.994 0 01-3.421 6.004z" fill="#757575"></path>
  </symbol>
  <symbol xmlns="http://www.w3.org/2000/svg" viewBox="0 0 16 16" id="xing-721987">
    <g fill="#7B1FA2">
      <circle cx="12.5" cy="14" r="1"></circle>
      <path d="M15.699 1.289A.96.96 0 0015.008 1a1 1 0 00-.993.894l-1.509 9.528a.5.5 0 00.977.207l2.475-9.311a.31.31 0 00.011-.051.476.476 0 00.031-.163c.007-.321-.1-.61-.301-.815zM10.079.107a2.13 2.13 0 01-.683-.086.5.5 0 00-.604.287L6.007 7.017 3.207.308a.5.5 0 00-.604-.287 2.291 2.291 0 01-.68.086.501.501 0 00-.475.699L5 8.978V15.5a.5.5 0 00.5.5h1a.5.5 0 00.5-.5l.006-6.536L10.552.806a.502.502 0 00-.045-.479.53.53 0 00-.428-.22z"></path>
    </g>
  </symbol>
  <symbol xmlns="http://www.w3.org/2000/svg" viewBox="0 0 16 16" id="yahoo-721989">
    <path d="M16 0h-3.738L6.709 9.727 10.287 16h3.738l-3.578-6.273zM5.163 3H1.639l2.039 3.591L1 11h3.524l2.678-4.409z" fill="#00897B"></path>
  </symbol>
  <symbol xmlns="http://www.w3.org/2000/svg" viewBox="0 0 16 16" id="youtube-721990">
    <g fill-rule="evenodd" clip-rule="evenodd">
      <path d="M15.32 4.06c-.434-.772-.905-.914-1.864-.968C12.498 3.027 10.089 3 8.002 3c-2.091 0-4.501.027-5.458.091-.957.055-1.429.196-1.867.969C.23 4.831 0 6.159 0 8.497v.008c0 2.328.23 3.666.677 4.429.438.772.909.912 1.866.977.958.056 3.368.089 5.459.089 2.087 0 4.496-.033 5.455-.088.959-.065 1.43-.205 1.864-.977.451-.763.679-2.101.679-4.429v-.008c0-2.339-.228-3.667-.68-4.438z" fill="#F44336"></path>
      <path fill="#FAFAFA" d="M6 11.5v-6l5 3z"></path>
    </g>
  </symbol>
  <symbol xmlns="http://www.w3.org/2000/svg" viewBox="0 0 16 16" id="zootool-721991">
    <path d="M4.351 10.559C6.848 15.24 7.55 16 9.263 16 11.123 16 13 14.623 13 13.377c0-.422-.228-.794-.456-.907-.783.421-1.485.648-2.122.648-.816 0-1.273-.357-3.868-4.146 1.974-1.684 3.134-2.802 4.634-4.923 1.29-.842 1.795-1.587 1.795-2.267 0-.583-.506-1.36-1.158-1.36-.311 0-.555.292-.882.794C8.544.309 7.418.001 6.178.001c-1.159 0-2.105 1.004-2.105 2.17 0 .664.278 1.036.701 1.166.555-.323 1.012-.453 1.305-.453.768 0 1.959.34 3.427.777-.734 1.052-2.643 2.996-4.014 4.065-.522-.438-.849-.599-1.321-.599C2.653 7.127 2 8.876 2 9.961c0 1.101.261 1.409.669 1.409.457-.002 1.208-.39 1.682-.811z" fill="#4CAF50"></path>
  </symbol>
</svg>