<svg width="0" height="0" class="hidden">
  <symbol xmlns="http://www.w3.org/2000/svg" viewBox="0 0 40 40" id="facebook-721949">
    <path d="M35 0H5C2.242 0 0 2.242 0 5v30c0 2.758 2.242 5 5 5h30c2.758 0 5-2.242 5-5V5c0-2.758-2.242-5-5-5zm0 0" fill="#1976d2"></path>
    <path d="M33.75 20H27.5v-5c0-1.379 1.121-1.25 2.5-1.25h2.5V7.5h-5c-4.14 0-7.5 3.36-7.5 7.5v5h-5v6.25h5V40h7.5V26.25h3.75zm0 0" fill-rule="evenodd" fill="#fafafa"></path>
  </symbol>
  <symbol xmlns="http://www.w3.org/2000/svg" viewBox="0 0 40 40" id="google-plus-721943">
    <path d="M40 17.5h-5v-5h-2.5v5h-5V20h5v5H35v-5h5zm-27.5 5h7.074a7.52 7.52 0 01-7.074 5A7.507 7.507 0 015 20c0-4.137 3.363-7.5 7.5-7.5 1.793 0 3.516.64 4.86 1.809l3.28-3.77A12.392 12.392 0 0012.5 7.5C5.61 7.5 0 13.11 0 20s5.61 12.5 12.5 12.5S25 26.89 25 20v-2.5H12.5zm0 0" fill="#f44336"></path>
  </symbol>
  <symbol xmlns="http://www.w3.org/2000/svg" viewBox="0 0 40 40" id="instagram-721958">
    <defs>
      <linearGradient id="a" gradientUnits="userSpaceOnUse" x1="1.464" y1="14.536" x2="14.536" y2="1.464" gradientTransform="scale(2.5)">
        <stop offset="0" stop-color="#ffc107"></stop>
        <stop offset=".507" stop-color="#f44336"></stop>
        <stop offset=".99" stop-color="#9c27b0"></stop>
      </linearGradient>
      <linearGradient id="b" gradientUnits="userSpaceOnUse" x1="5.172" y1="10.828" x2="10.828" y2="5.172" gradientTransform="scale(2.5)">
        <stop offset="0" stop-color="#ffc107"></stop>
        <stop offset=".507" stop-color="#f44336"></stop>
        <stop offset=".99" stop-color="#9c27b0"></stop>
      </linearGradient>
      <linearGradient id="c" gradientUnits="userSpaceOnUse" x1="11.923" y1="4.077" x2="12.677" y2="3.323" gradientTransform="scale(2.5)">
        <stop offset="0" stop-color="#ffc107"></stop>
        <stop offset=".507" stop-color="#f44336"></stop>
        <stop offset=".99" stop-color="#9c27b0"></stop>
      </linearGradient>
    </defs>
    <path d="M27.5 0h-15C5.598 0 0 5.598 0 12.5v15C0 34.402 5.598 40 12.5 40h15C34.402 40 40 34.402 40 27.5v-15C40 5.598 34.402 0 27.5 0zm8.75 27.5c0 4.824-3.926 8.75-8.75 8.75h-15c-4.824 0-8.75-3.926-8.75-8.75v-15c0-4.824 3.926-8.75 8.75-8.75h15c4.824 0 8.75 3.926 8.75 8.75zm0 0" fill="url(#a)"></path>
    <path d="M20 10c-5.523 0-10 4.477-10 10s4.477 10 10 10 10-4.477 10-10-4.477-10-10-10zm0 16.25A6.258 6.258 0 0113.75 20c0-3.45 2.805-6.25 6.25-6.25s6.25 2.8 6.25 6.25A6.258 6.258 0 0120 26.25zm0 0" fill="url(#b)"></path>
    <path d="M32.082 9.25c0 .734-.598 1.332-1.332 1.332a1.334 1.334 0 01-1.332-1.332c0-.734.598-1.332 1.332-1.332.734 0 1.332.598 1.332 1.332zm0 0" fill="url(#c)"></path>
  </symbol>
  <symbol xmlns="http://www.w3.org/2000/svg" viewBox="0 0 40 40" id="linkedin-721962">
    <path d="M0 12.5h8.945V40H0zm33.309.324c-.094-.031-.184-.062-.286-.09a5.312 5.312 0 00-.359-.07 7.941 7.941 0 00-1.605-.164c-5.215 0-8.524 3.793-9.614 5.258V12.5H12.5V40h8.945V25s6.758-9.414 9.614-2.5V40H40V21.441a8.916 8.916 0 00-6.691-8.617zM8.75 4.375A4.373 4.373 0 014.375 8.75 4.373 4.373 0 010 4.375 4.373 4.373 0 014.375 0 4.373 4.373 0 018.75 4.375zm0 0" fill="#1976d2"></path>
  </symbol>
  <symbol xmlns="http://www.w3.org/2000/svg" viewBox="0 0 40 40" id="twitter-721979">
    <path d="M40 8.848a16.982 16.982 0 01-4.727 1.293 8.143 8.143 0 003.61-4.532 16.399 16.399 0 01-5.2 1.985 8.199 8.199 0 00-9-2.02 8.2 8.2 0 00-5.187 7.63c0 .648.055 1.273.192 1.87A23.218 23.218 0 012.785 6.496a8.207 8.207 0 002.52 10.957 8.038 8.038 0 01-3.703-1.008v.09a8.24 8.24 0 006.57 8.059 8.336 8.336 0 01-2.152.27 7.369 7.369 0 01-1.551-.141 8.272 8.272 0 007.66 5.71 16.453 16.453 0 01-10.168 3.5c-.672 0-1.316-.03-1.961-.113a23.066 23.066 0 0012.578 3.68c15.094 0 23.344-12.5 23.344-23.336 0-.363-.016-.71-.031-1.059A16.386 16.386 0 0040 8.848zm0 0" fill="#03a9f4"></path>
  </symbol>
</svg>